<?xml version="1.0" standalone="no"?>
<!DOCTYPE svg PUBLIC "-//W3C//DTD SVG 20010904//EN"
 "http://www.w3.org/TR/2001/REC-SVG-20010904/DTD/svg10.dtd">
<svg version="1.0" xmlns="http://www.w3.org/2000/svg"
 width="300.000000pt" height="300.000000pt" viewBox="0 0 300.000000 300.000000"
 preserveAspectRatio="xMidYMid meet">
<g transform="translate(0.000000,300.000000) scale(0.100000,-0.100000)"
fill="#000000" stroke="none">
<path d="M1355 2994 c-229 -33 -374 -77 -544 -164 -289 -150 -506 -371 -651
-665 -117 -238 -154 -399 -154 -665 0 -266 43 -448 159 -678 213 -419 598
-707 1070 -799 125 -24 405 -24 530 0 304 60 585 207 795 417 210 210 357 491
417 795 24 125 24 405 0 530 -30 151 -65 254 -137 400 -145 293 -362 515 -650
664 -217 112 -401 159 -650 165 -85 3 -168 2 -185 0z m1195 -884 c0 -5 -21
-53 -47 -105 l-48 -95 -152 0 -153 0 52 105 53 105 147 0 c91 0 148 -4 148
-10z m-650 -100 l-50 -100 -359 0 c-414 0 -469 -6 -596 -69 -118 -59 -220
-152 -275 -249 -18 -32 -32 -42 -73 -56 -134 -43 -247 -189 -247 -317 0 -35 3
-40 17 -34 52 20 147 25 449 25 l334 0 -50 -100 -50 -100 -119 0 c-70 0 -176
9 -258 21 -158 24 -309 22 -432 -6 -59 -14 -75 -15 -81 -4 -16 25 -21 125 -10
192 28 179 127 317 285 398 57 30 64 37 96 103 83 174 304 319 570 375 84 18
136 20 497 20 l402 1 -50 -100z m-100 -206 c0 -3 -12 -25 -26 -50 l-26 -44
-149 0 -149 0 25 50 25 50 150 0 c83 0 150 -3 150 -6z m600 1 c0 -2 -10 -25
-22 -50 l-22 -45 -153 0 -153 0 25 50 25 50 150 0 c83 0 150 -2 150 -5z m-725
-245 l-25 -50 -150 0 -150 0 25 50 25 50 150 0 150 0 -25 -50z m625 45 c0 -2
-10 -25 -22 -50 l-22 -45 -153 0 -153 0 25 50 25 50 150 0 c83 0 150 -2 150
-5z m-712 -222 c-33 -76 -25 -73 -189 -73 l-149 0 25 50 25 50 150 0 150 0
-12 -27z m612 22 c0 -2 -10 -25 -22 -50 l-22 -45 -153 0 -153 0 25 50 25 50
150 0 c83 0 150 -2 150 -5z m700 -201 c0 -20 -78 -107 -120 -134 -96 -62 -70
-60 -912 -60 l-768 0 50 100 50 100 850 0 c468 0 850 -3 850 -6z"/>
</g>
</svg>
